<svg role="img" viewBox="0 0 24 24" xmlns="http://www.w3.org/2000/svg">
  <title>React</title>
  <path d="M12 0c-1.657 0-3.156.672-4.242 1.757l-.697.686C6.354 1.897 6.177 1.9 6 1.914 4.579 2.061 3.192 2.62 1.926 3.54L1.1 4.074C.397 4.563.05 5.4.05 6.25s.347 1.687 1.051 2.176c.905.642 1.944 1.07 3.053 1.24.074.01.149.02.224.02-.075.017-.149.037-.224.048-1.11.17-2.149.599-3.053 1.24C.347 11.062 0 11.899 0 12.75s.347 1.687 1.051 2.176c1.266.92 2.654 1.479 4.074 1.625.177.014.354.017.53.031l.697.686c1.086 1.085 2.585 1.757 4.242 1.757 1.656 0 3.155-.672 4.242-1.757l.697-.686c.176-.014.353-.017.53-.031 1.42-.146 2.808-.705 4.074-1.625.704-.489 1.051-1.326 1.051-2.176s-.347-1.688-1.051-2.176c-.904-.642-1.943-1.07-3.052-1.24-.075-.01-.15-.02-.224-.02.075-.017.149-.037.224-.048 1.11-.17 2.149-.598 3.053-1.24.704-.489 1.051-1.326 1.051-2.176s-.347-1.687-1.051-2.176c-1.266-.92-2.654-1.479-4.074-1.625-.177-.014-.354-.017-.53-.031l-.697-.686C15.155.672 13.656 0 12 0zm0 1.5c1.274 0 2.442.484 3.315 1.357l.616.608c-.524.04-1.04.142-1.541.308-.501.166-.988.386-1.457.65C12.611 3.762 12.312 3.9 12 3.9c-.312 0-.611-.138-.933-.477-.47-.264-.956-.484-1.457-.65-.501-.166-1.017-.268-1.541-.308l.616-.608C9.558 1.984 10.726 1.5 12 1.5zm-7.054 3.857c.577.126 1.125.336 1.637.619l-.593.604c-.192.196-.384.401-.571.618-.187.216-.368.44-.545.671-.353.461-.687.948-.998 1.457-.062.1-.116.199-.173.299-.057-.1-.111-.199-.173-.299-.311-.509-.645-.996-.998-1.457-.177-.231-.358-.455-.545-.671-.187-.217-.379-.422-.571-.618l-.593-.604c.512-.283 1.06-.493 1.637-.619zm1.943 1.057c.072.074.142.149.209.226.197.215.393.438.58.668.187.23.369.464.544.703.35.478.676.974.973 1.488.296-.514.622-1.01.973-1.488.175-.239.357-.473.544-.703.187-.23.383-.453.58-.668.067-.077.137-.152.209-.226-.575-.204-1.18-.371-1.8-.501-.621-.13-1.255-.199-1.888-.199-.633 0-1.267.069-1.888.199-.62.13-1.225.297-1.8.501zm11.168.226c.067-.077.137-.152.209-.226-.575-.204-1.18-.371-1.8-.501-.621-.13-1.255-.199-1.888-.199-.633 0-1.267.069-1.888.199-.62.13-1.225.297-1.8.501.072.074.142.149.209.226.197.215.393.438.58.668.187.23.369.464.544.703.35.478.676.974.973 1.488.296-.514.622-1.01.973-1.488.175-.239.357-.473.544-.703.187-.23.383-.453.58-.668zm-7.386 1.748c.312 0 .611.138.933.477.47.264.956.484 1.457.65.501.166 1.017.268 1.541.308l-.616.608C14.442 10.516 13.274 11 12 11c-1.274 0-2.442-.484-3.315-1.357l-.616-.608c.524-.04 1.04-.142 1.541-.308.501-.166.988-.386 1.457-.65.322-.34.621-.478.933-.478zm-4.686 1.489c.186.23.368.463.544.703.35.478.676.974.973 1.488.296-.514.622-1.01.973-1.488.175-.239.357-.473.544-.703.187-.23.383-.453.58-.668.067-.077.137-.152.209-.226-.575-.204-1.18-.371-1.8-.501-.621-.13-1.255-.199-1.888-.199-.633 0-1.267.069-1.888.199-.62.13-1.225.297-1.8.501.072.074.142.149.209.226.197.215.393.438.58.668zm11.168-.226c-.575-.204-1.18-.371-1.8-.501-.621-.13-1.255-.199-1.888-.199-.633 0-1.267.069-1.888.199-.62.13-1.225.297-1.8.501.072.074.142.149.209.226.197.215.393.438.58.668.187.23.369.464.544.703.35.478.676.974.973 1.488.296-.514.622-1.01.973-1.488.175-.239.357-.473.544-.703.187-.23.383-.453.58-.668.067-.077.137-.152.209-.226zm-7.386 1.748c.312 0 .611.138.933.477.47.264.956.484 1.457.65.501.166 1.017.268 1.541.308l-.616.608C14.442 16.516 13.274 17 12 17c-1.274 0-2.442-.484-3.315-1.357l-.616-.608c.524-.04 1.04-.142 1.541-.308.501-.166.988-.386 1.457-.65.322-.34.621-.478.933-.478zm-4.686 1.489c.186.23.368.463.544.703.35.478.676.974.973 1.488.296-.514.622-1.01.973-1.488.175-.239.357-.473.544-.703.187-.23.383-.453.58-.668.067-.077.137-.152.209-.226-.575-.204-1.18-.371-1.8-.501-.621-.13-1.255-.199-1.888-.199-.633 0-1.267.069-1.888.199-.62.13-1.225.297-1.8.501.072.074.142.149.209.226.197.215.393.438.58.668zm11.168-.226c-.575-.204-1.18-.371-1.8-.501-.621-.13-1.255-.199-1.888-.199-.633 0-1.267.069-1.888.199-.62.13-1.225.297-1.8.501.072.074.142.149.209.226.197.215.393.438.58.668.187.23.369.464.544.703.35.478.676.974.973 1.488.296-.514.622-1.01.973-1.488.175-.239.357-.473.544-.703.187-.23.383-.453.58-.668.067-.077.137-.152.209-.226zm-7.386 1.748c.312 0 .611.138.933.477.47.264.956.484 1.457.65.501.166 1.017.268 1.541.308l-.616.608C14.442 16.516 13.274 17 12 17c-1.274 0-2.442-.484-3.315-1.357l-.616-.608c.524-.04 1.04-.142 1.541-.308.501-.166.988-.386 1.457-.65.322-.34.621-.478.933-.478zm-4.686 1.489c.186.23.368.463.544.703.35.478.676.974.973 1.488.296-.514.622-1.01.973-1.488.175-.239.357-.473.544-.703.187-.23.383-.453.58-.668.067-.077.137-.152.209-.226-.575-.204-1.18-.371-1.8-.501-.621-.13-1.255-.199-1.888-.199-.633 0-1.267.069-1.888.199-.62.13-1.225.297-1.8.501.072.074.142.149.209.226.197.215.393.438.58.668zm11.168-.226c-.575-.204-1.18-.371-1.8-.501-.621-.13-1.255-.199-1.888-.199-.633 0-1.267.069-1.888.199-.62.13-1.225.297-1.8.501.072.074.142.149.209.226.197.215.393.438.58.668.187.23.369.464.544.703.35.478.676.974.973 1.488.296-.514.622-1.01.973-1.488.175-.239.357-.473.544-.703.187-.23.383-.453.58-.668.067-.077.137-.152.209-.226zm-7.386 1.748c.312 0 .611.138.933.477.47.264.956.484 1.457.65.501.166 1.017.268 1.541.308l-.616.608C14.442 16.516 13.274 17 12 17c-1.274 0-2.442-.484-3.315-1.357l-.616-.608c.524-.04 1.04-.142 1.541-.308.501-.166.988-.386 1.457-.65.322-.34.621-.478.933-.478zm-4.686 1.489c.186.23.368.463.544.703.35.478.676.974.973 1.488.296-.514.622-1.01.973-1.488.175-.239.357-.473.544-.703.187-.23.383-.453.58-.668.067-.077.137-.152.209-.226-.575-.204-1.18-.371-1.8-.501-.621-.13-1.255-.199-1.888-.199-.633 0-1.267.069-1.888.199-.62.13-1.225.297-1.8.501.072.074.142.149.209.226.197.215.393.438.58.668zm11.168-.226c-.575-.204-1.18-.371-1.8-.501-.621-.13-1.255-.199-1.888-.199-.633 0-1.267.069-1.888.199-.62.13-1.225.297-1.8.501.072.074.142.149.209.226.197.215.393.438.58.668.187.23.369.464.544.703.35.478.676.974.973 1.488.296-.514.622-1.01.973-1.488.175-.239.357-.473.544-.703.187-.23.383-.453.58-.668.067-.077.137-.152.209-.226zm-7.386 1.748c.312 0 .611.138.933.477.47.264.956.484 1.457.65.501.166 1.017.268 1.541.308l-.616.608C14.442 16.516 13.274 17 12 17c-1.274 0-2.442-.484-3.315-1.357l-.616-.608c.524-.04 1.04-.142 1.541-.308.501-.166.988-.386 1.457-.65.322-.34.621-.478.933-.478zm-4.686 1.489c.186.23.368.463.544.703.35.478.676.974.973 1.488.296-.514.622-1.01.973-1.488.175-.239.357-.473.544-.703.187-.23.383-.453.58-.668.067-.077.137-.152.209-.226-.575-.204-1.18-.371-1.8-.501-.621-.13-1.255-.199-1.888-.199-.633 0-1.267.069-1.888.199-.62.13-1.225.297-1.8.501.072.074.142.149.209.226.197.215.393.438.58.668zm11.168-.226c-.575-.204-1.18-.371-1.8-.501-.621-.13-1.255-.199-1.888-.199-.633 0-1.267.069-1.888.199-.62.13-1.225.297-1.8.501.072.074.142.149.209.226.197.215.393.438.58.668.187.23.369.464.544.703.35.478.676.974.973 1.488.296-.514.622-1.01.973-1.488.175-.239.357-.473.544-.703.187-.23.383-.453.58-.668.067-.077.137-.152.209-.226zm-7.386 1.748c.312 0 .611.138.933.477.47.264.956.484 1.457.65.501.166 1.017.268 1.541.308l-.616.608C14.442 16.516 13.274 17 12 17c-1.274 0-2.442-.484-3.315-1.357l-.616-.608c.524-.04 1.04-.142 1.541-.308.501-.166.988-.386 1.457-.65.322-.34.621-.478.933-.478z"/>
</svg>
